<svg width="108" height="60" viewBox="0 0 108 60" fill="none" xmlns="http://www.w3.org/2000/svg">
<path d="M53.7596 39.333C64.2067 39.333 72.3903 35.1582 72.3903 29.8286C72.3903 24.4989 64.2067 20.3241 53.7596 20.3241C43.3125 20.3241 35.1289 24.4989 35.1289 29.8286C35.1289 35.1582 43.3125 39.333 53.7596 39.333ZM43.156 25.6943C45.9554 24.3648 49.7213 23.6328 53.7598 23.6328C57.7984 23.6328 61.5641 24.3649 64.3634 25.6943C65.7923 26.3729 68.1892 27.8122 68.1892 29.8286C68.1892 31.8449 65.7923 33.2845 64.3634 33.9629C61.5641 35.2924 57.7984 36.0246 53.7598 36.0246C49.7213 36.0246 45.9556 35.2924 43.156 33.9629C41.7271 33.2843 39.3303 31.8449 39.3303 29.8286C39.3303 27.8122 41.7271 26.3729 43.156 25.6943Z" fill="white"/>
<path d="M105.79 28.1957C104.645 28.0501 103.566 28.6627 103.381 29.5646C102.288 34.8863 98.014 39.3519 91.0206 42.4788C83.8376 45.6903 74.099 47.3879 62.8575 47.3879C61.2513 47.3879 59.6602 47.3459 58.0893 47.2653C70.2678 46.5494 89.9632 41.4424 89.347 29.3622C89.0943 23.7904 84.3186 18.6369 75.8319 14.8074C67.4771 11.0372 56.4136 8.96092 44.6799 8.96092C33.0474 8.96092 22.6608 10.9548 14.6431 14.7268C6.88318 18.3776 1.70081 23.6136 0.0503016 29.4703C-0.20094 30.3622 0.513501 31.2456 1.64598 31.4436C1.79933 31.4704 1.95226 31.4832 2.10309 31.4832C3.06625 31.4832 3.93467 30.9583 4.15188 30.1871C7.17181 19.4699 23.4588 12.2694 44.6796 12.2694C46.2823 12.2694 47.8695 12.3113 49.4369 12.3917C41.7402 12.8433 34.5989 14.498 28.9872 17.163C22.0049 20.4789 18.1598 24.977 18.1598 29.8287C18.1598 36.9638 25.4933 42.2758 32.9352 45.3897C42.0393 49.1991 52.6223 50.6966 62.8575 50.6966C74.8248 50.6966 85.2807 48.8498 93.0948 45.356C101.234 41.7168 106.225 36.4389 107.528 30.0928C107.714 29.1907 106.935 28.3414 105.79 28.1957ZM31.1572 19.9961C37.1615 17.1445 45.1886 15.5741 53.7596 15.5741C62.3306 15.5741 70.3577 17.1445 76.3621 19.9961C81.8524 22.6033 84.9547 25.9586 85.148 29.4785C85.3835 34.5399 79.8854 38.2596 74.6755 40.407C68.294 43.0371 60.9133 44.0832 53.7596 44.0832C46.6656 44.0832 39.3643 43.0539 33.0177 40.478C27.8908 38.3971 22.3614 34.7872 22.3614 29.8286C22.3614 26.1816 25.4851 22.6897 31.1572 19.9961Z" fill="white"/>
<path d="M56.1067 3.36213C56.1723 3.35716 62.7598 2.91846 71.5827 4.67709C79.7289 6.30073 91.4135 10.188 100.817 19.4862C101.232 19.8963 101.844 20.11 102.462 20.11C102.921 20.11 103.383 19.9923 103.769 19.7498C104.677 19.1805 104.827 18.1398 104.104 17.4252C93.9704 7.40593 81.3861 3.21837 72.6137 1.46983C63.1043 -0.4256 56.0271 0.0458606 55.7305 0.0670349C54.5749 0.14892 53.7225 0.952883 53.8265 1.86272C53.9302 2.77272 54.9539 3.44352 56.1067 3.36213Z" fill="white"/>
<path d="M42.7156 3.94197C43.4925 4.34958 44.5456 4.29846 45.2533 3.81906C45.8915 3.3868 46.1368 2.67679 45.8736 2.0485C45.2781 0.627328 42.6705 0.544946 41.9405 1.9337C41.5638 2.65016 41.8884 3.515 42.7156 3.94197Z" fill="white"/>
<path d="M51.2299 56.5476C51.1632 56.5524 44.4437 56.9862 35.5944 55.2014C23.8142 52.8256 14.0309 47.8537 6.51636 40.4235C5.79373 39.7087 4.47177 39.5909 3.56449 40.1602C2.65699 40.7294 2.50721 41.7701 3.23006 42.4847C13.3633 52.504 25.9479 56.6916 34.7203 58.4401C40.9805 59.6879 46.1866 59.9099 49.098 59.9099C50.609 59.9099 51.502 59.8502 51.6032 59.8429C52.7578 59.7612 53.6083 58.9585 53.5062 58.0494C53.4042 57.1402 52.3841 56.4686 51.2299 56.5476Z" fill="white"/>
<path d="M65.3926 56.7108C64.9588 55.8773 63.7037 55.4711 62.6491 55.8158C61.592 56.1614 61.0742 57.1425 61.5126 57.9763C61.9502 58.8082 63.1995 59.2166 64.2561 58.8712C65.3109 58.5265 65.8327 57.5427 65.3926 56.7108Z" fill="white"/>
</svg>
